# xmcd
#
# Track frame offsets: 
#        150
#        13575
#        31615
#        46022
#        57350
#        71307
#        84627
#        98370
#        112522
#        128115
#        142815
#        155020
#        168102
#        185847
#        201750
#        216132
#        230442
#        246202
#        257440
#        268250
#        281740
#        303122
#
# Disc length: 4229 seconds
#
# Revision: 5
# Processed by: cddbd v1.5.2PL0 Copyright (c) Steve Scherf et al.
# Submitted via: ExactAudioCopyFreeDBPlugin 1.0
#
DISCID=1c108316
DTITLE=The Jackson 5 - Soulsation!:  25th Anniversary Collection [box 
DTITLE=set]
DYEAR=1995
DGENRE=Soul
TTITLE0=I Want You Back
TTITLE1=Who's Lovin' You
TTITLE2=You've Changed
TTITLE3=Stand!
TTITLE4=Can You Remember
TTITLE5=ABC
TTITLE6=The Love You Save
TTITLE7=I Found That Girl
TTITLE8=La La (Means I Love You)
TTITLE9=I'll Bet You
TTITLE10=(Come 'Round Here) I'm the One You Need
TTITLE11=The Young Folks
TTITLE12=I'll Be There
TTITLE13=Goin' Back to Indiana
TTITLE14=Can I See You in the Morning
TTITLE15=Mama's Pearl
TTITLE16=Reach In
TTITLE17=Christmas Won't Be the Same This Year
TTITLE18=Santa Claus is Coming to Town
TTITLE19=Never Can Say Goodbye
TTITLE20=Maybe Tomorrow
TTITLE21=She's Good
EXTD=
EXTT0=
EXTT1=
EXTT2=
EXTT3=
EXTT4=
EXTT5=
EXTT6=
EXTT7=
EXTT8=
EXTT9=
EXTT10=
EXTT11=
EXTT12=
EXTT13=
EXTT14=
EXTT15=
EXTT16=
EXTT17=
EXTT18=
EXTT19=
EXTT20=
EXTT21=
PLAYORDER=
